<?xml version="1.0" encoding="utf-8"?>
<!-- Generator: Adobe Illustrator 18.0.0, SVG Export Plug-In . SVG Version: 6.00 Build 0)  -->
<!DOCTYPE svg PUBLIC "-//W3C//DTD SVG 1.1//EN" "http://www.w3.org/Graphics/SVG/1.1/DTD/svg11.dtd">
<svg version="1.1" id="Layer_1" xmlns="http://www.w3.org/2000/svg" xmlns:xlink="http://www.w3.org/1999/xlink" x="0px" y="0px"
	 viewBox="0 0 196.9 98.6" enable-background="new 0 0 196.9 98.6" xml:space="preserve">
<g>
	<path fill="#00C9C0" d="M23.7,16.4c6.1,0,9.4,2,11.3,6.2c0.6,1.2,0.3,1.8-0.9,2.3l-3.2,1.4c-1.1,0.5-1.6,0.3-2.2-0.8
		c-0.9-1.9-2.6-2.8-5-2.8c-3.5,0-5,0.9-5,2.9c0,1.1,0.6,1.8,1.9,2.3c1.3,0.5,2.3,0.6,4.4,0.8c2.4,0.3,3.8,0.5,6,1.4
		c1.1,0.5,1.9,1,2.6,1.6c1.3,1.3,2.4,3.5,2.4,6.3c0,2.9-1.1,5.3-3.4,7c-2.2,1.8-5.3,2.7-9.2,2.7c-6.2,0-10.2-2.3-11.9-6.9
		c-0.4-1.2-0.1-1.7,1.1-2.2l3.1-1.1c1.2-0.5,1.7-0.3,2.2,1c0.9,1.9,2.7,2.9,5.5,2.9c3.8,0,5.6-1.1,5.6-3.3c0-1.9-2-2.7-5.7-3
		c-1.4-0.2-2.4-0.3-3.2-0.5c-0.8-0.1-1.8-0.4-3-0.8c-1.2-0.4-2.2-0.9-2.9-1.5c-1.4-1.2-2.6-3.4-2.6-6.4
		C11.7,20.2,16.1,16.4,23.7,16.4z"/>
	<path fill="#00C9C0" d="M58.3,17c1.3,0,1.7,0.4,1.7,1.7v2.8c0,1.3-0.4,1.7-1.7,1.7H46.4v5.5h9.7c1.3,0,1.7,0.4,1.7,1.7v2.8
		c0,1.3-0.4,1.7-1.7,1.7h-9.7v5.8h12.3c1.2,0,1.7,0.5,1.7,1.7v2.8c0,1.3-0.4,1.7-1.7,1.7H41.3c-1.3,0-1.7-0.4-1.7-1.7V18.8
		c0-1.3,0.4-1.7,1.7-1.7H58.3z"/>
	<path fill="#00C9C0" d="M84,17c1.3,0,1.7,0.4,1.7,1.7v2.8c0,1.3-0.4,1.7-1.7,1.7h-6.6v22c0,1.3-0.4,1.7-1.7,1.7h-3.4
		c-1.3,0-1.7-0.4-1.7-1.7v-22h-6.6c-1.3,0-1.7-0.4-1.7-1.7v-2.8c0-1.3,0.4-1.7,1.7-1.7H84z"/>
	<path fill="#00C9C0" d="M25.6,51.5c6.4,0,10.4,3.9,10.4,10.2S32,71.8,25.6,71.8h-6.2v8c0,1.3-0.4,1.7-1.7,1.7h-3.4
		c-1.3,0-1.7-0.4-1.7-1.7V53.3c0-1.3,0.4-1.7,1.7-1.7H25.6z M24.8,65.5c2.5,0,3.9-1.4,3.9-3.8c0-2.4-1.4-3.9-3.9-3.9h-5.5v7.7H24.8z
		"/>
	<path fill="#00C9C0" d="M63.2,79.9c0.4,1.1,0,1.7-1.1,1.7h-3.2c-2.1,0-2.8-0.3-3.1-1.6l-1.3-4H44l-1.4,4c-0.5,1.2-1,1.6-3.1,1.6
		h-2.9c-1.2,0-1.6-0.5-1.1-1.7L45.6,53c0.4-1.1,0.9-1.4,2.1-1.4h3.3c1.2,0,1.7,0.3,2.1,1.4L63.2,79.9z M50.4,63.9
		c-0.5-1.8-1-4.1-1-5.2l0-0.8H49c0,2-0.3,4-1,6l-2.2,6.6h6.9L50.4,63.9z"/>
	<path fill="#00C9C0" d="M82.1,51.5c1.3,0,1.7,0.4,1.7,1.7v2.8c0,1.3-0.4,1.7-1.7,1.7h-6.6v22c0,1.3-0.4,1.7-1.7,1.7h-3.4
		c-1.3,0-1.7-0.4-1.7-1.7v-22H62c-1.3,0-1.7-0.4-1.7-1.7v-2.8c0-1.3,0.4-1.7,1.7-1.7H82.1z"/>
	<path fill="#00C9C0" d="M100.4,51.5c6.1,0,10,3.6,10,9.7c0,4.3-1.7,7.2-4.9,8.7c0.1,0.1,0.4,0.6,0.9,1.5l4.4,8.3
		c0.6,1,0.3,1.8-0.9,1.8h-3.4c-2.2,0-2.9-0.3-3.6-1.7l-3.1-6.5c-1-2-1.8-2.5-4.2-2.5h-1.7v8.9c0,1.3-0.4,1.7-1.7,1.7h-3.4
		c-1.3,0-1.7-0.4-1.7-1.7V53.3c0-1.3,0.4-1.7,1.7-1.7H100.4z M103.3,61.3c0-1.1-0.3-1.9-0.9-2.6c-0.6-0.6-1.5-0.9-2.6-0.9h-5.9v6.9
		h5.9c1.1,0,2-0.3,2.6-0.9C103,63.2,103.3,62.4,103.3,61.3z"/>
	<path fill="#00C9C0" d="M113.9,62.3c0-7.1,4.6-11.4,12.5-11.4c8,0,12.5,4.3,12.5,11.4v8.5c0,7.1-4.6,11.4-12.5,11.4
		c-7.9,0-12.5-4.3-12.5-11.4V62.3z M132,62.1c0-3.3-1.9-5-5.6-5c-3.6,0-5.6,1.7-5.6,5v8.8c0,3.3,2,5,5.6,5c3.8,0,5.6-1.7,5.6-5V62.1
		z"/>
	<path fill="#00C9C0" d="M148.4,51.5c1.3,0,1.7,0.4,1.7,1.7v22h10.9c1.2,0,1.7,0.5,1.7,1.7v2.8c0,1.3-0.4,1.7-1.7,1.7H145
		c-1.3,0-1.7-0.4-1.7-1.7V53.3c0-1.3,0.4-1.7,1.7-1.7H148.4z"/>
</g>
</svg>
